<?xml version="1.0" encoding="utf-8"?>
<!-- Generator: Adobe Illustrator 24.1.0, SVG Export Plug-In . SVG Version: 6.00 Build 0)  -->
<svg version="1.1" xmlns="http://www.w3.org/2000/svg" xmlns:xlink="http://www.w3.org/1999/xlink" x="0px" y="0px"
	 viewBox="0 0 320.2 143" style="enable-background:new 0 0 320.2 143;" xml:space="preserve">
<style type="text/css">
	.st0{fill:#6087A0;}
	.st1{font-family:'Avenir-Roman';}
	.st2{font-size:24px;}
	.st3{fill:#55BFF1;}
	.st4{font-family:'Noteworthy-Light';}
	.st5{font-size:33.8211px;}
</style>
<g id="Layer_1">
	<text transform="matrix(1 0 0 1 49.3908 133.4483)" class="st0 st1 st2">Assistance - Services</text>
	<text transform="matrix(1 0 0 1 49.4235 106.097)" class="st3 st4 st5">Jazzy and Bright</text>
</g>
<g id="Layer_2">
	<g>
		<path class="st3" d="M297.2,44.4c-11.1-4-20.2-2.2-27.3,1.8c-2.9-3.9-11.6-13.9-24.6-15c-2.8-0.2-5.7,0-8.4,0.6
			c-1.8-3.5-12-20.3-38.4-23.8c-18.8-2.5-33.7,8.7-38.6,12.9C151.6,10.5,135.5,1.6,114.5,5C94.3,8.3,83.8,20.1,78.4,32
			c-3.1-1.5-17.9-8.1-28.7,0.5c-8.2,6.5-9.9,14.4-10.2,17.8c-7.4-2-16.6-2-26,3.9C-5.6,66.1,0.7,90.6,2.1,90.8
			C3.3,91-1,71.1,16.9,58.7c17.8-12.3,38.7,1.1,38.8,0.5c0.1-0.3-5.4-5.3-13.7-8.2c1.1-3.2,4.5-10.5,12.6-15.4
			c7.8-4.7,18.7-1.4,22.3-0.1c-3.8,10-4.1,18.5-4.1,18.5l1.4,0.3c0,0,8.9-34.7,37.6-39c51-7.7,59.5,38.7,59.5,38.7l1.5-0.2
			c0,0-0.8-15.1-9.5-28.6c11.7-8.2,22.4-11.6,33.2-10.8c14,1,25.4,6.3,34.4,19c-6.5,2.3-11.1,5.5-11.1,5.5l0.3,0.5
			c10.6-4.5,20.2-5.3,26.9-3.9c8.7,1.8,12.6,6.1,19.6,12.8c-10.2,7.3-15.3,18.4-15.2,18.6c0.2,0.3,19.5-25.7,43.6-16.3
			c27.7,10.8,20.9,40.4,22.5,39.9C319,89.9,329.2,55.8,297.2,44.4z"/>
		<path class="st0" d="M69.4,15c0-0.6,2.3-0.3,3.8-1.8c1.6-1.7,1.1-4.6,1.5-4.6c0.4,0,0.2,3,2.1,4.7c1.5,1.3,3.5,1,3.5,1.6
			c0.1,0.7-2.4,0.7-3.8,2.5c-1.3,1.7-0.8,3.9-1.2,3.9c-0.5,0.1-0.4-2.8-2.4-4.5C71.3,15.5,69.4,15.6,69.4,15z"/>
		<path class="st0" d="M90.9,48.6c0-1.4,5.3-0.9,8.8-4.6c3.7-4,2.8-10.3,3.6-10.3c0.8,0-0.4,6.9,3.6,10.9c3.3,3.3,8.2,2.7,8.3,4.1
			c0.1,1.5-5.5,1.4-8.8,5.4c-3.5,4.2-2.2,10.4-3,10.5c-0.9,0,0-7.9-4.7-12.1C95.4,49.4,90.9,49.8,90.9,48.6z"/>
		<path class="st0" d="M126.6,37.5c0-0.9,3.1-0.6,5.2-2.7c2.4-2.5,1.8-6.6,2.3-6.6c0.6,0,0,4.8,2.8,7.2c2.1,1.9,5,1.4,5.1,2.2
			c0.1,0.9-3.5,0.8-5.6,3.3c-2.2,2.6-1.5,6.2-2.1,6.2c-0.6,0-0.2-4.3-2.9-6.9C129.3,38.2,126.6,38.3,126.6,37.5z"/>
		<path class="st0" d="M200.8,54.2c0-0.9,3-0.6,5.1-2.7c2.4-2.5,1.8-6.6,2.3-6.6c0.5,0-0.2,4.4,2.3,6.8c2,2,4.8,1.6,4.9,2.5
			c0,0.9-3.2,0.9-5.1,3.3c-2,2.5-1.2,6-1.7,6c-0.6,0-0.2-3.9-2.7-6.4C203.6,55,200.8,55.1,200.8,54.2z"/>
		<path class="st0" d="M236.1,13.3c-0.1-1.2,4.4-1.2,7.2-4.5c3.1-3.6,2.4-8.8,3-8.8c0.6,0-0.5,5.8,2.7,9.3c2.7,3,7,2.5,7.1,3.9
			c0.1,1.4-4.6,1.3-7.2,4.7c-2.7,3.5-1.5,8.6-2,8.7c-0.6,0,0.2-6.6-3.6-10.1C240.2,13.9,236.2,14.5,236.1,13.3z"/>
		<path class="st0" d="M280,28.9c0-0.7-1.7-0.7-3.1-2c-1.9-1.9-1.5-4.8-2-4.8c-0.4,0,0,2.7-1.7,4.5c-1.4,1.6-3.6,1.5-3.5,2.2
			c0,0.7,2.2,0.5,3.7,2.1c1.7,1.8,1.2,4.8,1.6,4.8c0.4,0-0.1-3,1.6-4.8C278,29.5,280,29.6,280,28.9z"/>
	</g>
</g>
</svg>
